<svg width="57" height="56" viewBox="0 0 57 56" fill="none" xmlns="http://www.w3.org/2000/svg">
<g clip-path="url(#clip0_643_612)">
<path d="M8.89106 17.1819H0.5V25.7242H8.89106V17.1819Z" fill="#FF3495"/>
<path d="M33.153 40.4577H55.9486V49H33.153V40.4577ZM43.4281 20.9611C46.0142 20.9611 48.1091 23.0938 48.1091 25.7266C48.1091 28.3593 46.0142 30.492 43.4281 30.492H33.153V39.0343H43.4281C48.987 39.0343 53.7475 35.4838 55.6331 30.492C56.1938 29.0111 56.5002 27.405 56.5002 25.7266C56.5002 18.389 50.6365 12.4188 43.4281 12.4188C36.2197 12.4188 30.356 18.3882 30.356 25.7266H38.747C38.747 23.0938 40.8419 20.9611 43.4281 20.9611Z" fill="white"/>
<path d="M18.6825 40.4577H31.7547V49H23.3636C16.1445 49 10.2915 43.0414 10.2915 35.6922V7H18.6825V17.1842H28.4725V25.7266H18.6825V40.4577Z" fill="white"/>
</g>
<defs>
<clipPath id="clip0_643_612">
<rect width="56" height="56" fill="white" transform="translate(0.5)"/>
</clipPath>
</defs>
</svg>
